# xmcd
#
# Track frame offsets:
#	150
#	12218
#	21127
#	34373
#	49746
#	66488
#	79887
#	89862
#	103707
#	116483
#	129112
#	137966
#	153893
#	165835
#
# Disc length: 2398 seconds
#
# Revision: 1
# Processed by: cddbd v1.5.1PL0 Copyright (c) Steve Scherf et al.
# Submitted via: audiograbber 1.82.02
#
DISCID=b5095c0e
DTITLE=Johnny Chester - Country Salute
DYEAR=1900
DGENRE=Country
TTITLE0=Behind Closed Doors
TTITLE1=Is Anybody Going To San Antonio
TTITLE2=Together Again
TTITLE3=Distant Drums
TTITLE4=Me And Bobby McGee
TTITLE5=I Can Stop Loving You
TTITLE6=He'll Have To Go
TTITLE7=For The Good Times
TTITLE8=Made In Japan
TTITLE9=Ruby, Don't Take Your Love To Town
TTITLE10=Kiss An Angel Good Morning
TTITLE11=Ruban James
TTITLE12=Sweet Dreams Of You
TTITLE13=The Most Beautiful Girl
EXTD=
EXTT0=
EXTT1=
EXTT2=
EXTT3=
EXTT4=
EXTT5=
EXTT6=
EXTT7=
EXTT8=
EXTT9=
EXTT10=
EXTT11=
EXTT12=
EXTT13=
PLAYORDER=
